<?xml version="1.0" encoding="utf-8"?>
<!-- Generator: Adobe Illustrator 15.0.2, SVG Export Plug-In . SVG Version: 6.00 Build 0)  -->
<!DOCTYPE svg PUBLIC "-//W3C//DTD SVG 1.1//EN" "http://www.w3.org/Graphics/SVG/1.1/DTD/svg11.dtd">
<svg version="1.1" xmlns="http://www.w3.org/2000/svg" xmlns:xlink="http://www.w3.org/1999/xlink" x="0px" y="0px"
	 width="551.333px" height="445.333px" viewBox="0 0 551.333 445.333" enable-background="new 0 0 551.333 445.333"
	 xml:space="preserve">
<g id="Treppen_etc.">
	<polygon fill="#FFFFFF" points="187.54,3.287 251.457,124.158 229.82,136.345 251.457,179.122 262.152,173.402 295.727,235.33 
		364.121,235.33 371.582,249.009 371.582,268.159 402.422,268.159 402.422,253.485 513.096,253.485 513.096,275.869 
		527.521,275.869 545.677,293.776 545.677,433.052 471.562,433.052 460.868,442.005 399.686,442.005 399.686,402.212 
		369.096,402.212 369.096,407.683 261.779,407.683 250.338,385.051 242.877,389.279 250.96,404.823 200.846,432.057 98.006,240.304 
		104.472,229.175 140.472,211.019 128.721,189.319 84.14,211.33 3,58.583 56.721,31.059 88.389,86.769 136.97,61.899 
		123.373,35.537 	"/>
	<g>
		
			<rect x="218.576" y="275.199" transform="matrix(0.8956 -0.4449 0.4449 0.8956 -102.7482 127.545)" fill="#FFFFFF" stroke="#000000" stroke-miterlimit="10" width="3.538" height="14.932"/>
		
			<rect x="221.758" y="273.613" transform="matrix(0.8955 -0.4451 0.4451 0.8955 -101.7382 128.8558)" fill="#FFFFFF" stroke="#000000" stroke-miterlimit="10" width="3.539" height="14.931"/>
		
			<rect x="224.94" y="272.024" transform="matrix(0.8955 -0.4451 0.4451 0.8955 -100.7081 130.1261)" fill="#FFFFFF" stroke="#000000" stroke-miterlimit="10" width="3.539" height="14.933"/>
		
			<rect x="228.123" y="270.437" transform="matrix(0.8957 -0.4446 0.4446 0.8957 -99.5876 131.1937)" fill="#FFFFFF" stroke="#000000" stroke-miterlimit="10" width="3.538" height="14.933"/>
		
			<rect x="231.305" y="268.849" transform="matrix(0.8956 -0.4449 0.4449 0.8956 -98.603 132.5655)" fill="#FFFFFF" stroke="#000000" stroke-miterlimit="10" width="3.538" height="14.932"/>
		
			<rect x="234.486" y="267.261" transform="matrix(0.8953 -0.4454 0.4454 0.8953 -97.6338 133.9804)" fill="#FFFFFF" stroke="#000000" stroke-miterlimit="10" width="3.539" height="14.932"/>
		
			<rect x="237.669" y="265.674" transform="matrix(0.8955 -0.445 0.445 0.8955 -96.5343 135.0871)" fill="#FFFFFF" stroke="#000000" stroke-miterlimit="10" width="3.54" height="14.933"/>
		<path fill="none" stroke="#000000" stroke-miterlimit="10" d="M403.499,326.187"/>
	</g>
	<g>
		<polyline fill="#FFFFFF" stroke="#000000" stroke-miterlimit="10" points="222.084,290.138 220.72,297.583 237.983,329.458 
			325.25,328.333 343.944,310.584 		"/>
	</g>
	<g>
		<polyline fill="#FFFFFF" stroke="#000000" stroke-miterlimit="10" points="228.449,286.965 230.438,291.083 228.916,296.396 
			242.5,322.333 322.334,321.584 340.084,304 343.375,304 		"/>
	</g>
	<path fill="#FFFFFF" stroke="#000000" stroke-miterlimit="10" d="M326.25,301.084"/>
	<g>
		<polyline fill="#FFFFFF" stroke="#000000" stroke-miterlimit="10" points="343.375,297.417 337.834,297.417 319.5,315.334 
			246.667,315.917 235.75,295.5 237.5,289.667 234.801,284.25 		"/>
	</g>
	<g>
		<polyline fill="#FFFFFF" stroke="#000000" stroke-miterlimit="10" points="241.165,281.084 245.083,288.552 243.124,295.084 
			250.833,309.334 317.084,308.5 334.834,290.75 343.375,290.709 		"/>
	</g>
	<g>
		<rect x="343.974" y="307.726" fill="#FFFFFF" stroke="#000000" stroke-miterlimit="10" width="14.483" height="3.442"/>
		<rect x="343.97" y="304.265" fill="#FFFFFF" stroke="#000000" stroke-miterlimit="10" width="14.482" height="3.442"/>
		<rect x="343.965" y="300.806" fill="#FFFFFF" stroke="#000000" stroke-miterlimit="10" width="14.483" height="3.442"/>
		<rect x="343.958" y="297.345" fill="#FFFFFF" stroke="#000000" stroke-miterlimit="10" width="14.484" height="3.443"/>
		<rect x="343.954" y="293.887" fill="#FFFFFF" stroke="#000000" stroke-miterlimit="10" width="14.483" height="3.441"/>
		<rect x="343.947" y="290.426" fill="#FFFFFF" stroke="#000000" stroke-miterlimit="10" width="14.484" height="3.443"/>
		<rect x="343.944" y="286.966" fill="#FFFFFF" stroke="#000000" stroke-miterlimit="10" width="14.483" height="3.442"/>
	</g>
	<g>
		<rect x="358.472" y="303.807" fill="#FFFFFF" stroke="#000000" stroke-miterlimit="10" width="13.25" height="3.442"/>
		<rect x="358.468" y="300.346" fill="#FFFFFF" stroke="#000000" stroke-miterlimit="10" width="13.249" height="3.442"/>
		<rect x="358.463" y="296.887" fill="#FFFFFF" stroke="#000000" stroke-miterlimit="10" width="13.25" height="3.442"/>
		<rect x="358.458" y="293.426" fill="#FFFFFF" stroke="#000000" stroke-miterlimit="10" width="13.251" height="3.443"/>
		<rect x="358.453" y="289.968" fill="#FFFFFF" stroke="#000000" stroke-miterlimit="10" width="13.25" height="3.441"/>
		<rect x="358.447" y="286.507" fill="#FFFFFF" stroke="#000000" stroke-miterlimit="10" width="13.251" height="3.443"/>
		<rect x="358.444" y="283.047" fill="#FFFFFF" stroke="#000000" stroke-miterlimit="10" width="13.25" height="3.442"/>
		<rect x="358.472" y="307.612" fill="#FFFFFF" stroke="#000000" stroke-miterlimit="10" width="13.25" height="3.442"/>
	</g>
	<g>
		<rect x="371.744" y="299.052" fill="#FFFFFF" stroke="#000000" stroke-miterlimit="10" width="29.923" height="2.754"/>
		<rect x="371.731" y="296.284" fill="#FFFFFF" stroke="#000000" stroke-miterlimit="10" width="29.926" height="2.755"/>
		<rect x="371.722" y="293.519" fill="#FFFFFF" stroke="#000000" stroke-miterlimit="10" width="29.923" height="2.753"/>
		<rect x="371.709" y="290.75" fill="#FFFFFF" stroke="#000000" stroke-miterlimit="10" width="29.926" height="2.754"/>
		<rect x="371.702" y="287.982" fill="#FFFFFF" stroke="#000000" stroke-miterlimit="10" width="29.924" height="2.754"/>
	</g>
	<polyline fill="#FFFFFF" stroke="#000000" stroke-miterlimit="10" points="336.834,235.33 336.834,253 344.843,268.159 	"/>
	<line fill="#FFFFFF" stroke="#000000" stroke-miterlimit="10" x1="371.582" y1="268.159" x2="359.834" y2="268.159"/>
	<line fill="#FFFFFF" stroke="#000000" stroke-miterlimit="10" x1="353.167" y1="235.33" x2="353.167" y2="268.159"/>
	<g>
		<rect x="370.114" y="390.028" fill="#FFFFFF" stroke="#000000" stroke-miterlimit="10" width="29.571" height="12.184"/>
		<g>
			<g>
				<rect x="387.391" y="373.883" fill="#FFFFFF" stroke="#000000" stroke-miterlimit="10" width="12.443" height="1.972"/>
				<rect x="387.387" y="371.9" fill="#FFFFFF" stroke="#000000" stroke-miterlimit="10" width="12.443" height="1.973"/>
				<rect x="387.382" y="369.917" fill="#FFFFFF" stroke="#000000" stroke-miterlimit="10" width="12.444" height="1.973"/>
				<rect x="387.379" y="367.934" fill="#FFFFFF" stroke="#000000" stroke-miterlimit="10" width="12.443" height="1.974"/>
				<rect x="387.374" y="365.954" fill="#FFFFFF" stroke="#000000" stroke-miterlimit="10" width="12.443" height="1.972"/>
				<rect x="387.368" y="363.971" fill="#FFFFFF" stroke="#000000" stroke-miterlimit="10" width="12.445" height="1.973"/>
				<rect x="387.365" y="361.987" fill="#FFFFFF" stroke="#000000" stroke-miterlimit="10" width="12.444" height="1.973"/>
				<rect x="387.391" y="376.063" fill="#FFFFFF" stroke="#000000" stroke-miterlimit="10" width="12.443" height="1.973"/>
				<g>
					<rect x="387.362" y="387.948" fill="#FFFFFF" stroke="#000000" stroke-miterlimit="10" width="12.442" height="1.973"/>
					<rect x="387.356" y="385.966" fill="#FFFFFF" stroke="#000000" stroke-miterlimit="10" width="12.444" height="1.973"/>
					<rect x="387.351" y="383.981" fill="#FFFFFF" stroke="#000000" stroke-miterlimit="10" width="12.445" height="1.974"/>
					<rect x="387.348" y="382" fill="#FFFFFF" stroke="#000000" stroke-miterlimit="10" width="12.443" height="1.973"/>
					<rect x="387.342" y="380.019" fill="#FFFFFF" stroke="#000000" stroke-miterlimit="10" width="12.444" height="1.973"/>
					<rect x="387.339" y="378.037" fill="#FFFFFF" stroke="#000000" stroke-miterlimit="10" width="12.444" height="1.972"/>
				</g>
			</g>
			<g>
				<rect x="370.143" y="373.99" fill="#FFFFFF" stroke="#000000" stroke-miterlimit="10" width="12.443" height="1.972"/>
				<rect x="370.139" y="372.007" fill="#FFFFFF" stroke="#000000" stroke-miterlimit="10" width="12.443" height="1.973"/>
				<rect x="370.134" y="370.024" fill="#FFFFFF" stroke="#000000" stroke-miterlimit="10" width="12.444" height="1.973"/>
				<rect x="370.131" y="368.041" fill="#FFFFFF" stroke="#000000" stroke-miterlimit="10" width="12.443" height="1.974"/>
				<rect x="370.126" y="366.061" fill="#FFFFFF" stroke="#000000" stroke-miterlimit="10" width="12.443" height="1.972"/>
				<rect x="370.12" y="364.079" fill="#FFFFFF" stroke="#000000" stroke-miterlimit="10" width="12.445" height="1.973"/>
				<rect x="370.117" y="362.094" fill="#FFFFFF" stroke="#000000" stroke-miterlimit="10" width="12.444" height="1.973"/>
				<rect x="370.143" y="376.17" fill="#FFFFFF" stroke="#000000" stroke-miterlimit="10" width="12.443" height="1.973"/>
				<g>
					<rect x="370.114" y="388.055" fill="#FFFFFF" stroke="#000000" stroke-miterlimit="10" width="12.442" height="1.973"/>
					<rect x="370.108" y="386.073" fill="#FFFFFF" stroke="#000000" stroke-miterlimit="10" width="12.444" height="1.973"/>
					<rect x="370.103" y="384.089" fill="#FFFFFF" stroke="#000000" stroke-miterlimit="10" width="12.445" height="1.974"/>
					<rect x="370.1" y="382.108" fill="#FFFFFF" stroke="#000000" stroke-miterlimit="10" width="12.443" height="1.973"/>
					<rect x="370.094" y="380.126" fill="#FFFFFF" stroke="#000000" stroke-miterlimit="10" width="12.444" height="1.973"/>
					<rect x="370.091" y="378.144" fill="#FFFFFF" stroke="#000000" stroke-miterlimit="10" width="12.444" height="1.972"/>
				</g>
			</g>
		</g>
		<rect x="376.334" y="390.028" fill="#FFFFFF" stroke="#000000" stroke-miterlimit="10" width="17.278" height="3.972"/>
	</g>
	<g>
		
			<rect x="143.556" y="333.551" transform="matrix(0.472 0.8816 -0.8816 0.472 383.0224 39.7295)" fill="#FFFFFF" stroke="#000000" stroke-miterlimit="10" width="29.572" height="12.183"/>
		<g>
			<g>
				
					<rect x="180.204" y="331.07" transform="matrix(0.8818 -0.4716 0.4716 0.8818 -137.6568 125.3185)" fill="#FFFFFF" stroke="#000000" stroke-miterlimit="10" width="1.971" height="12.444"/>
				
					<rect x="181.949" y="330.131" transform="matrix(0.881 -0.4731 0.4731 0.881 -137.3495 126.5523)" fill="#FFFFFF" stroke="#000000" stroke-miterlimit="10" width="1.974" height="12.443"/>
				
					<rect x="183.695" y="329.19" transform="matrix(0.8817 -0.4718 0.4718 0.8817 -136.4001 126.8085)" fill="#FFFFFF" stroke="#000000" stroke-miterlimit="10" width="1.973" height="12.445"/>
				
					<rect x="185.441" y="328.253" transform="matrix(0.8821 -0.4711 0.4711 0.8821 -135.5876 127.268)" fill="#FFFFFF" stroke="#000000" stroke-miterlimit="10" width="1.973" height="12.443"/>
				
					<rect x="187.186" y="327.314" transform="matrix(0.8819 -0.4715 0.4715 0.8819 -135.0355 128.1297)" fill="#FFFFFF" stroke="#000000" stroke-miterlimit="10" width="1.972" height="12.442"/>
				
					<rect x="188.93" y="326.374" transform="matrix(0.8811 -0.4729 0.4729 0.8811 -134.7005 129.3421)" fill="#FFFFFF" stroke="#000000" stroke-miterlimit="10" width="1.972" height="12.444"/>
				
					<rect x="190.678" y="325.433" transform="matrix(0.8817 -0.4718 0.4718 0.8817 -133.8011 129.6585)" fill="#FFFFFF" stroke="#000000" stroke-miterlimit="10" width="1.973" height="12.445"/>
				
					<rect x="178.281" y="332.1" transform="matrix(0.8816 -0.4721 0.4721 0.8816 -138.4809 124.6997)" fill="#FFFFFF" stroke="#000000" stroke-miterlimit="10" width="1.973" height="12.443"/>
				<g>
					
						<rect x="167.789" y="337.684" transform="matrix(0.8812 -0.4728 0.4728 0.8812 -142.5354 120.653)" fill="#FFFFFF" stroke="#000000" stroke-miterlimit="10" width="1.973" height="12.443"/>
					
						<rect x="169.535" y="336.744" transform="matrix(0.8817 -0.4719 0.4719 0.8817 -141.6644 121.0575)" fill="#FFFFFF" stroke="#000000" stroke-miterlimit="10" width="1.972" height="12.444"/>
					
						<rect x="171.28" y="335.803" transform="matrix(0.8818 -0.4716 0.4716 0.8818 -140.9368 121.6606)" fill="#FFFFFF" stroke="#000000" stroke-miterlimit="10" width="1.973" height="12.446"/>
					
						<rect x="173.025" y="334.864" transform="matrix(0.8815 -0.4722 0.4722 0.8815 -140.434 122.583)" fill="#FFFFFF" stroke="#000000" stroke-miterlimit="10" width="1.973" height="12.445"/>
					
						<rect x="174.77" y="333.925" transform="matrix(0.8812 -0.4727 0.4727 0.8812 -139.9038 123.4701)" fill="#FFFFFF" stroke="#000000" stroke-miterlimit="10" width="1.973" height="12.445"/>
					
						<rect x="176.517" y="332.986" transform="matrix(0.8817 -0.4717 0.4717 0.8817 -139.0211 123.8433)" fill="#FFFFFF" stroke="#000000" stroke-miterlimit="10" width="1.971" height="12.443"/>
				</g>
			</g>
			<g>
				
					<rect x="171.968" y="315.917" transform="matrix(0.882 -0.4712 0.4712 0.882 -131.3945 119.51)" fill="#FFFFFF" stroke="#000000" stroke-miterlimit="10" width="1.971" height="12.442"/>
				
					<rect x="173.713" y="314.978" transform="matrix(0.8814 -0.4723 0.4723 0.8814 -130.9856 120.5866)" fill="#FFFFFF" stroke="#000000" stroke-miterlimit="10" width="1.973" height="12.442"/>
				
					<rect x="175.459" y="314.037" transform="matrix(0.882 -0.4713 0.4713 0.882 -130.1143 120.9605)" fill="#FFFFFF" stroke="#000000" stroke-miterlimit="10" width="1.973" height="12.444"/>
				
					<rect x="177.204" y="313.097" transform="matrix(0.8821 -0.471 0.471 0.8821 -129.3963 121.565)" fill="#FFFFFF" stroke="#000000" stroke-miterlimit="10" width="1.974" height="12.444"/>
				
					<rect x="178.95" y="312.159" transform="matrix(0.8818 -0.4716 0.4716 0.8818 -128.8857 122.4919)" fill="#FFFFFF" stroke="#000000" stroke-miterlimit="10" width="1.971" height="12.443"/>
				
					<rect x="180.694" y="311.216" transform="matrix(0.881 -0.4732 0.4732 0.881 -128.5743 123.7449)" fill="#FFFFFF" stroke="#000000" stroke-miterlimit="10" width="1.973" height="12.446"/>
				
					<rect x="182.442" y="310.278" transform="matrix(0.8814 -0.4724 0.4724 0.8814 -127.7544 124.1886)" fill="#FFFFFF" stroke="#000000" stroke-miterlimit="10" width="1.972" height="12.446"/>
				
					<rect x="170.045" y="316.944" transform="matrix(0.8817 -0.4719 0.4719 0.8817 -132.2606 118.9549)" fill="#FFFFFF" stroke="#000000" stroke-miterlimit="10" width="1.972" height="12.444"/>
				<g>
					
						<rect x="159.553" y="322.529" transform="matrix(0.8812 -0.4727 0.4727 0.8812 -136.3242 114.9239)" fill="#FFFFFF" stroke="#000000" stroke-miterlimit="10" width="1.973" height="12.443"/>
					
						<rect x="161.298" y="321.589" transform="matrix(0.8815 -0.4722 0.4722 0.8815 -135.5555 115.4724)" fill="#FFFFFF" stroke="#000000" stroke-miterlimit="10" width="1.973" height="12.444"/>
					
						<rect x="163.044" y="320.648" transform="matrix(0.8819 -0.4715 0.4715 0.8819 -134.7387 115.9507)" fill="#FFFFFF" stroke="#000000" stroke-miterlimit="10" width="1.974" height="12.444"/>
					
						<rect x="164.79" y="319.71" transform="matrix(0.8817 -0.4719 0.4719 0.8817 -134.1875 116.8024)" fill="#FFFFFF" stroke="#000000" stroke-miterlimit="10" width="1.972" height="12.444"/>
					
						<rect x="166.534" y="318.771" transform="matrix(0.8814 -0.4723 0.4723 0.8814 -133.6283 117.646)" fill="#FFFFFF" stroke="#000000" stroke-miterlimit="10" width="1.973" height="12.443"/>
					
						<rect x="168.281" y="317.831" transform="matrix(0.8816 -0.472 0.472 0.8816 -132.9118 118.2629)" fill="#FFFFFF" stroke="#000000" stroke-miterlimit="10" width="1.972" height="12.444"/>
				</g>
			</g>
		</g>
		
			<rect x="153.357" y="335.783" transform="matrix(0.472 0.8816 -0.8816 0.472 383.3036 35.5214)" fill="#FFFFFF" stroke="#000000" stroke-miterlimit="10" width="17.278" height="3.971"/>
	</g>
	<g>
		
			<rect x="131.333" y="103.111" transform="matrix(0.8821 -0.471 0.471 0.8821 -35.2658 74.9383)" fill="#FFFFFF" stroke="#000000" stroke-miterlimit="10" width="1.49" height="9.623"/>
		
			<rect x="132.652" y="102.402" transform="matrix(0.8816 -0.4719 0.4719 0.8816 -34.8076 75.6447)" fill="#FFFFFF" stroke="#000000" stroke-miterlimit="10" width="1.491" height="9.623"/>
		
			<rect x="133.972" y="101.689" transform="matrix(0.8818 -0.4715 0.4715 0.8818 -34.3023 76.1084)" fill="#FFFFFF" stroke="#000000" stroke-miterlimit="10" width="1.491" height="9.625"/>
		
			<rect x="135.291" y="100.98" transform="matrix(0.8821 -0.471 0.471 0.8821 -33.7942 76.5454)" fill="#FFFFFF" stroke="#000000" stroke-miterlimit="10" width="1.492" height="9.625"/>
		
			<rect x="136.611" y="100.27" transform="matrix(0.8816 -0.4721 0.4721 0.8816 -33.3376 77.2868)" fill="#FFFFFF" stroke="#000000" stroke-miterlimit="10" width="1.49" height="9.623"/>
		
			<rect x="137.929" y="99.558" transform="matrix(0.8811 -0.4729 0.4729 0.8811 -32.8721 77.9969)" fill="#FFFFFF" stroke="#000000" stroke-miterlimit="10" width="1.492" height="9.626"/>
		
			<rect x="139.25" y="98.848" transform="matrix(0.8814 -0.4723 0.4723 0.8814 -32.3614 78.4145)" fill="#FFFFFF" stroke="#000000" stroke-miterlimit="10" width="1.491" height="9.626"/>
		
			<rect x="129.879" y="103.887" transform="matrix(0.8815 -0.4722 0.4722 0.8815 -35.8473 74.5599)" fill="#FFFFFF" stroke="#000000" stroke-miterlimit="10" width="1.491" height="9.625"/>
		<g>
			
				<rect x="121.948" y="108.109" transform="matrix(0.8814 -0.4724 0.4724 0.8814 -38.7924 71.3619)" fill="#FFFFFF" stroke="#000000" stroke-miterlimit="10" width="1.491" height="9.623"/>
			
				<rect x="123.267" y="107.398" transform="matrix(0.8815 -0.4722 0.4722 0.8815 -38.2877 71.8507)" fill="#FFFFFF" stroke="#000000" stroke-miterlimit="10" width="1.492" height="9.625"/>
			
				<rect x="124.587" y="106.687" transform="matrix(0.8819 -0.4715 0.4715 0.8819 -37.7668 72.2706)" fill="#FFFFFF" stroke="#000000" stroke-miterlimit="10" width="1.492" height="9.625"/>
			
				<rect x="125.906" y="105.978" transform="matrix(0.8815 -0.4722 0.4722 0.8815 -37.3051 72.9317)" fill="#FFFFFF" stroke="#000000" stroke-miterlimit="10" width="1.491" height="9.624"/>
			
				<rect x="127.225" y="105.268" transform="matrix(0.8816 -0.472 0.472 0.8816 -36.8077 73.4449)" fill="#FFFFFF" stroke="#000000" stroke-miterlimit="10" width="1.492" height="9.623"/>
			
				<rect x="128.546" y="104.557" transform="matrix(0.8816 -0.4719 0.4719 0.8816 -36.3113 73.9618)" fill="#FFFFFF" stroke="#000000" stroke-miterlimit="10" width="1.491" height="9.625"/>
		</g>
	</g>
	<g id="Aufzug_1_">
		<g>
			
				<rect x="116.001" y="93.2" transform="matrix(0.8907 -0.4546 0.4546 0.8907 -31.1383 68.3642)" fill="#FFFFFF" stroke="#000000" stroke-miterlimit="10" width="21.214" height="11.482"/>
		</g>
		<polygon fill="#FFFFFF" stroke="#000000" stroke-miterlimit="10" points="114.551,98.648 138.665,99.232 133.446,89.006 
			119.77,108.875 		"/>
	</g>
	<g id="Aufzug">
		<g>
			
				<rect x="121.706" y="216.035" transform="matrix(0.8907 -0.4545 0.4545 0.8907 -86.8951 85.041)" fill="#FFFFFF" stroke="#000000" stroke-miterlimit="10" width="23.433" height="14.422"/>
		</g>
		<polygon fill="#FFFFFF" stroke="#000000" stroke-miterlimit="10" points="119.708,222.149 147.136,224.344 140.581,211.498 
			126.264,234.995 		"/>
	</g>
	<path id="Stuhllager" fill="#FFFFFF" stroke="#000000" stroke-miterlimit="10" d="M240.203,264.414l-24.766,12.353l-8.178-0.451
		l-30.092-58.232l30.092-15.521L240.203,264.414z"/>
	<polygon fill="none" stroke="#000000" stroke-miterlimit="10" points="124.276,289.286 130.657,301.184 177.874,276.767 
		171.327,265 124.276,289.286 107.502,258.011 134.334,244.166 151.075,275.191 	"/>
	<polygon fill="none" stroke="#000000" stroke-miterlimit="10" points="134.334,244.166 151.075,275.191 171.327,265 
		173.465,268.842 181.75,264.414 183.625,258.021 167.375,227.208 	"/>
	<path fill="none" stroke="#000000" stroke-miterlimit="10" d="M172.51,236.945"/>
	<polyline fill="none" stroke="#000000" stroke-miterlimit="10" points="172.51,236.945 161,242.708 164.25,248.958 
		142.688,259.648 151.075,275.191 162.494,269.445 158.979,262.708 	"/>
	<line fill="none" stroke="#000000" stroke-miterlimit="10" x1="162.494" y1="269.445" x2="154.417" y2="253.833"/>
	<line fill="none" stroke="#000000" stroke-miterlimit="10" x1="158.979" y1="262.651" x2="180.286" y2="251.689"/>
	<line fill="none" stroke="#000000" stroke-miterlimit="10" x1="168.321" y1="257.846" x2="166.75" y2="254.583"/>
	<line fill="none" stroke="#000000" stroke-miterlimit="10" x1="173.465" y1="268.842" x2="170.25" y2="262.651"/>
	<polygon fill="#FFFFFF" stroke="#000000" stroke-miterlimit="10" points="399.834,361.986 399.834,351.549 394.209,351.549 
		394.209,330.083 399.834,324.833 	"/>
	<polygon fill="none" stroke="#000000" stroke-miterlimit="10" points="167.375,227.208 107.502,258.011 98.006,240.304 
		104.472,229.175 119.205,221.745 126.75,235.333 157.6,219.667 163.875,221.583 	"/>
	<polyline fill="none" stroke="#000000" stroke-miterlimit="10" points="84.14,211.33 140.285,183.284 88.389,86.769 	"/>
	<polygon fill="none" stroke="#000000" stroke-miterlimit="10" points="129.149,188.846 140.285,183.284 126.943,158.47 
		116.116,163.833 	"/>
	<polyline fill="none" stroke="#000000" stroke-miterlimit="10" points="124.308,117.515 130.9,129.833 165.667,112.211 
		136.97,61.899 	"/>
	<line fill="none" stroke="#000000" stroke-miterlimit="10" x1="130.9" y1="129.833" x2="177.167" y2="218.083"/>
	<line fill="#FFFFFF" stroke="#000000" stroke-miterlimit="10" x1="394.209" y1="351.549" x2="370.091" y2="351.549"/>
	<polygon fill="#FFFFFF" stroke="#000000" stroke-miterlimit="10" points="212.25,327.812 197.438,301.809 181.309,310.55 
		195.951,336.457 	"/>
	<g>
		<defs>
			<rect id="SVGID_1_" width="551.333" height="445.333"/>
		</defs>
		<clipPath id="SVGID_2_">
			<use xlink:href="#SVGID_1_"  overflow="visible"/>
		</clipPath>
	</g>
	<polygon fill="none" stroke="#000000" stroke-miterlimit="10" points="187.54,3.287 251.457,124.158 229.147,135.876 
		251.457,179.122 262.152,173.402 295.727,235.33 364.121,235.33 371.582,249.009 371.582,268.159 402.422,268.159 402.422,253.485 
		513.096,253.485 513.096,275.869 527.521,275.869 545.677,293.776 545.677,433.052 471.562,433.052 460.868,442.005 
		399.686,442.005 399.686,402.212 369.096,402.212 369.096,407.683 261.779,407.683 250.338,385.051 244.385,388.189 
		252.468,403.733 200.846,432.057 98.006,240.304 104.472,229.175 140.472,211.019 128.721,189.319 84.14,211.33 3,58.583 
		56.721,31.059 88.389,86.769 136.97,61.899 123.373,35.537 	"/>
</g>
<g id="Räume">
	<path id="_x30_02" fill="none" stroke="#000000" stroke-miterlimit="10" d="M250.338,385.051l0.684-27.347l6.964-6.155h10.135
		h40.041v56.135l-46.352,0.216L250.338,385.051z"/>
	<path id="_x30_01" fill="none" stroke="#000000" stroke-miterlimit="10" d="M308.162,351.549h61.929v50.663h-0.995v5.472h-60.934
		V351.549"/>
	<g id="_x30_12">
		<polygon fill="none" stroke="#000000" stroke-miterlimit="10" points="406.334,311.056 402.422,307.25 402.422,253.485 
			462.667,253.485 462.667,311.056 406.334,311.056 		"/>
	</g>
	<path id="_x30_13" fill="none" stroke="#000000" stroke-miterlimit="10" d="M462.667,311.056v-57.57h50.429v57.57H462.667z"/>
	<path id="_x30_14" fill="none" stroke="#000000" stroke-miterlimit="10" d="M513.096,311.056v-35.187h14.425l18.156,17.907v32.557
		h-57.796v-15.277H513.096z"/>
	<path id="_x30_15" fill="none" stroke="#000000" stroke-miterlimit="10" d="M545.677,326.333v48.535h-57.796v-48.535H545.677z"/>
	<path id="_x30_16" fill="none" stroke="#000000" stroke-miterlimit="10" d="M487.881,374.868h57.796v58.184h-74.115v-47.087h5.772
		L487.881,374.868z"/>
	<path id="_x30_17" fill="none" stroke="#000000" stroke-miterlimit="10" d="M471.562,433.052l-10.693,8.953h-61.183l0.115-56.04
		h71.761V433.052z"/>
	<path id="_x30_18" fill="none" stroke="#000000" stroke-miterlimit="10" d="M414.75,385.955v-22.874h47.917v22.991L414.75,385.955z
		"/>
	<path id="_x30_19" fill="none" stroke="#000000" stroke-miterlimit="10" d="M437.25,363.081v-38.248h25.417v38.248H437.25z"/>
	<path id="_x30_20" fill="none" stroke="#000000" stroke-miterlimit="10" d="M437.25,363.081h-22.5v22.874h-14.954l0.038-61.122
		h37.416V363.081z"/>
	<path id="_x30_09" fill="none" stroke="#000000" stroke-miterlimit="10" d="M295.301,235.064l-55.098,29.35l-32.944-61.853
		l55.1-29.349L295.301,235.064z"/>
	<path id="_x30_03" fill="none" stroke="#000000" stroke-miterlimit="10" d="M252.468,403.733l-51.622,28.323l-23.854-44.477
		l51.841-27.247L252.468,403.733z"/>
	<path id="_x30_04" fill="none" stroke="#000000" stroke-miterlimit="10" d="M228.833,360.333l-51.841,27.247l-17.042-32.027
		l52.299-27.741L228.833,360.333z"/>
	<path id="_x30_05" fill="none" stroke="#000000" stroke-miterlimit="10" d="M3,58.583l53.721-27.524l70.222,127.411l-10.827,5.363
		l13.033,25.013L84.14,211.33L3,58.583z"/>
	<path id="_x30_06" fill="none" stroke="#000000" stroke-miterlimit="10" d="M165.667,112.211l-42.293-76.674l64.167-32.25
		l63.917,120.871l-96.86,50.874L130.9,129.833L165.667,112.211z"/>
	<path id="_x30_07" fill="none" stroke="#000000" stroke-miterlimit="10" d="M229.82,136.345l21.637,42.777l-74.29,38.961
		l-22.57-43.051L229.82,136.345z"/>
</g>
</svg>
