<?xml version="1.0" encoding="utf-8"?>
<!-- Generator: Adobe Illustrator 16.0.4, SVG Export Plug-In . SVG Version: 6.00 Build 0)  -->
<!DOCTYPE svg PUBLIC "-//W3C//DTD SVG 1.1//EN" "http://www.w3.org/Graphics/SVG/1.1/DTD/svg11.dtd">
<svg version="1.1" xmlns="http://www.w3.org/2000/svg" xmlns:xlink="http://www.w3.org/1999/xlink" x="0px" y="0px"
	 width="551.333px" height="445.333px" viewBox="0 0 551.333 445.333" enable-background="new 0 0 551.333 445.333"
	 xml:space="preserve">
<g id="outlines">
	<polygon fill="#FFFFFF" stroke="#000000" stroke-miterlimit="10" points="187.54,3.288 251.458,124.159 229.82,136.345 
		251.458,179.123 262.152,173.403 295.727,235.331 364.121,235.331 371.582,249.009 371.582,268.16 402.422,268.16 402.422,253.486 
		513.096,253.486 513.096,275.87 527.521,275.87 545.677,293.777 545.677,433.052 471.562,433.052 460.868,442.005 399.687,442.005 
		399.687,402.212 369.096,402.212 369.096,407.684 261.779,407.684 250.338,385.051 242.877,389.28 250.96,404.824 200.846,432.057 
		98.006,240.304 104.472,229.175 140.472,211.02 128.721,189.32 84.14,211.331 3,58.583 56.721,31.06 88.389,86.77 136.97,61.9 
		123.374,35.537 	"/>
</g>
<g id="R002">
	<polyline fill="#FFFFFF" stroke="#000000" stroke-miterlimit="10" points="250.338,385.051 251.022,357.705 257.986,351.549 
		268.121,351.549 308.162,351.549 308.162,407.684 261.811,407.9 	"/>
</g>
<g id="R001">
	<polyline fill="#FFFFFF" stroke="#000000" stroke-miterlimit="10" points="309.572,351.549 370.091,351.549 370.091,402.212 
		369.096,402.212 369.096,407.684 308.162,407.684 308.162,351.549 	"/>
	<line fill="#FFFFFF" stroke="#000000" stroke-miterlimit="10" x1="308.225" y1="351.549" x2="309.655" y2="351.549"/>
</g>
</svg>
